<svg xmlns="http://www.w3.org/2000/svg" viewBox="0 0 24 24"><path fill="none" stroke="#a3a3a3" stroke-linecap="round" stroke-linejoin="round" d="M3.5 8.5h0c.6 0 1 .4 1 1v6c0 .6-.4 1-1 1h0c-.6 0-1-.4-1-1v-6c0-.6.4-1 1-1zm17 0h0c.6 0 1 .4 1 1v6c0 .6-.4 1-1 1h0c-.6 0-1-.4-1-1v-6c0-.6.4-1 1-1zm-8.5-7c-2.8 0-5.2 2.2-5.5 5h10.9c-.2-2.8-2.6-5-5.4-5zm-5.5 7V17c0 .8.7 1.5 1.5 1.5h.5v4c0 .6.4 1 1 1s1-.4 1-1v-4h3v4c0 .6.4 1 1 1s1-.4 1-1v-4h.5c.8 0 1.5-.7 1.5-1.5V8.5h-11zM8 .5l1.1 1.8M16 .5l-1.1 1.8"/><circle cx="9.5" cy="4.5" r=".5" fill="#a3a3a3"/><circle cx="14.5" cy="4.5" r=".5" fill="#a3a3a3"/></svg>