<svg xmlns="http://www.w3.org/2000/svg" width="425.184" height="80"><defs><linearGradient id="a" x1=".156" y1=".154" x2=".641" y2=".692" gradientUnits="objectBoundingBox"><stop offset=".12" stop-color="#2988c9"/><stop offset=".29" stop-color="#2586c8"/><stop offset=".46" stop-color="#1983c5"/><stop offset=".63" stop-color="#057ec2"/><stop offset=".67" stop-color="#007dc1"/></linearGradient></defs><path d="M142.584 72h.72a15.681 15.681 0 0 0 8.28-2.88q6.48-4.32 7.92-14.22a24.19 24.19 0 0 0 .36-4.32q0-11.34-6.84-17.1a15.375 15.375 0 0 0-10.44-4.14 31.784 31.784 0 0 0-7.56 1.8v-13.5a4.312 4.312 0 0 0-1.44-3.42 4.433 4.433 0 0 0-3.42-1.62 4.076 4.076 0 0 0-4.14 2.88 4.122 4.122 0 0 0-.54 2.16v34.74q0 12.78 8.82 17.82a14.872 14.872 0 0 0 8.28 1.8Zm-7.56-19.62v-5.94q0-4.32 2.52-5.94l1.08-.54a8.206 8.206 0 0 1 3.96-1.08 9.783 9.783 0 0 1 3.6 1.26q4.14 2.7 4.14 10.44t-4.14 10.62a7.6 7.6 0 0 1-3.6 1.44h-.54q-5.94 0-6.84-6.84a31 31 0 0 1-.18-3.42ZM177.504 18a4.522 4.522 0 0 0-2.88-4.5 4.007 4.007 0 0 0-1.8-.36 4.631 4.631 0 0 0-4.32 2.7 5.813 5.813 0 0 0-.36 2.16v49.32a4.275 4.275 0 0 0 2.7 4.14 5.285 5.285 0 0 0 1.98.36 4.406 4.406 0 0 0 4.32-2.7 4.815 4.815 0 0 0 .36-1.8Zm13.14 11.16a5.292 5.292 0 0 1 3.6 1.44 4.884 4.884 0 0 1 1.44 3.6v20.52a8.463 8.463 0 0 0 .9 4.14 6.277 6.277 0 0 0 3.06 3.06 11.337 11.337 0 0 0 3.6.54q4.5 0 6.12-2.7l.54-.9a9.894 9.894 0 0 0 .9-4.14V34.2a4.672 4.672 0 0 1 2.52-4.32 4.158 4.158 0 0 1 4.68 0 4.672 4.672 0 0 1 2.52 4.32v20.52q-1.08 12.42-11.16 16.2a17.285 17.285 0 0 1-6.12 1.08q-8.64 0-13.5-6.48a16.2 16.2 0 0 1-1.62-2.34 18.094 18.094 0 0 1-2.16-8.46V34.2a4.544 4.544 0 0 1 2.7-4.5 3.776 3.776 0 0 1 1.98-.54Zm42.84 0a5.292 5.292 0 0 1 3.6 1.44 4.884 4.884 0 0 1 1.44 3.6v20.52a8.463 8.463 0 0 0 .9 4.14 6.277 6.277 0 0 0 3.06 3.06 11.337 11.337 0 0 0 3.6.54q4.5 0 6.12-2.7l.54-.9a9.894 9.894 0 0 0 .9-4.14V34.2a4.672 4.672 0 0 1 2.52-4.32 4.158 4.158 0 0 1 4.68 0 4.672 4.672 0 0 1 2.52 4.32v20.52q-1.08 12.42-11.16 16.2a17.285 17.285 0 0 1-6.12 1.08q-8.64 0-13.5-6.48a16.2 16.2 0 0 1-1.62-2.34 18.094 18.094 0 0 1-2.16-8.46V34.2a4.544 4.544 0 0 1 2.7-4.5 3.776 3.776 0 0 1 1.98-.54Zm59.4-16.56 2.52.36a4.943 4.943 0 0 1 3.6 3.42 4.635 4.635 0 0 1-1.44 4.86 4.257 4.257 0 0 1-4.68 1.08l-3.06-.36a3.1 3.1 0 0 0-2.52 1.08q-.9.9-.9 3.6v4.5h7.74a4.176 4.176 0 0 1 4.14 2.34 4.158 4.158 0 0 1 0 4.68 4.532 4.532 0 0 1-4.14 2.52h-7.74v26.64a4.846 4.846 0 0 1-2.16 4.32 4.77 4.77 0 0 1-5.04 0 4.741 4.741 0 0 1-2.34-4.32V40.68h-1.08a4.672 4.672 0 0 1-4.32-2.52 4.655 4.655 0 0 1 0-4.68 4.327 4.327 0 0 1 4.32-2.34h1.08v-4.5q0-6.12 3.06-9.72a11.359 11.359 0 0 1 7.02-4.14 19.621 19.621 0 0 1 5.94-.18Zm32.22 49.5h-1.62q-5.94-.9-7.2-7.02h19.62a4.2 4.2 0 0 0 4.32-2.88 4.815 4.815 0 0 0 .36-1.8v-1.8q0-12.6-8.64-18a14.938 14.938 0 0 0-7.38-1.8 16.7 16.7 0 0 0-9.9 3.06q-7.92 5.22-8.46 17.46a5.479 5.479 0 0 0 0 1.98q.54 11.7 8.46 17.46a15.113 15.113 0 0 0 8.82 3.06 45.261 45.261 0 0 0 9-.36 14.752 14.752 0 0 0 6.3-3.06 3.947 3.947 0 0 0 1.8-4.32 4.66 4.66 0 0 0-2.7-3.96 4.781 4.781 0 0 0-4.86.9q-1.62 1.08-7.92 1.08Zm-.72-23.58a6.076 6.076 0 0 1 3.06.72q2.88 1.44 3.6 5.94v.36h-14.76a8.741 8.741 0 0 1 3.6-5.94 7.647 7.647 0 0 1 3.6-1.08h.9Zm43.02 23.58h-1.62q-5.94-.9-7.2-7.02h19.62a4.2 4.2 0 0 0 4.32-2.88 4.816 4.816 0 0 0 .36-1.8v-1.8q0-12.6-8.64-18a14.938 14.938 0 0 0-7.38-1.8 16.7 16.7 0 0 0-9.9 3.06q-7.92 5.22-8.46 17.46a5.479 5.479 0 0 0 0 1.98q.54 11.7 8.46 17.46a15.113 15.113 0 0 0 8.82 3.06 45.261 45.261 0 0 0 9-.36 14.752 14.752 0 0 0 6.3-3.06 3.947 3.947 0 0 0 1.8-4.32 4.66 4.66 0 0 0-2.7-3.96 4.781 4.781 0 0 0-4.86.9q-1.62 1.08-7.92 1.08Zm-.72-23.58a6.076 6.076 0 0 1 3.06.72q2.88 1.44 3.6 5.94v.36h-14.76a8.741 8.741 0 0 1 3.6-5.94 7.647 7.647 0 0 1 3.6-1.08h.9Zm58.5 13.86V17.64a4.312 4.312 0 0 0-1.44-3.42 4.1 4.1 0 0 0-3.42-1.62 4.394 4.394 0 0 0-4.32 2.88 5.813 5.813 0 0 0-.36 2.16v13.68a18.628 18.628 0 0 0-7.74-1.8 17.123 17.123 0 0 0-8.64 2.7q-8.46 5.58-8.46 18.54 0 11.34 7.02 17.46l1.44.9a15.459 15.459 0 0 0 8.1 2.88h.54a16.081 16.081 0 0 0 8.64-1.8q6.12-3.24 7.92-11.52a25.949 25.949 0 0 0 .72-6.3Zm-9.54-5.76v5.76q.18 7.74-3.6 9.36a5.1 5.1 0 0 1-3.42.9h-.72a16.111 16.111 0 0 1-3.6-1.44q-3.78-3.6-3.96-10.44 0-7.92 3.96-10.62a7.611 7.611 0 0 1 3.6-1.26 15.845 15.845 0 0 1 4.14 1.08 6.984 6.984 0 0 1 3.24 3.24 14.241 14.241 0 0 1 .36 3.42Z" fill="#3e94d1"/><path data-name="Caminho 45" d="m42.2 7.238 6.194 6.194-29.226 29.225a8.107 8.107 0 0 1-10.828.576 29.586 29.586 0 0 1-.8-.741l-.292-.292a24.721 24.721 0 0 1 34.96-34.962Z" transform="translate(-.005 .005)" fill="url(#a)"/><path data-name="Caminho 46" d="m54.572 7.243-35.41 35.419a8.107 8.107 0 0 1-10.828.576 7.146 7.146 0 0 1-.644-.576l34.962 34.961a8.107 8.107 0 0 0 11.471 0l35.409-35.41a24.721 24.721 0 0 0-34.96-34.96Zm23.216 23.216a8.112 8.112 0 1 1 0-11.471 8.107 8.107 0 0 1 0 11.471Z" fill="#3e94d1"/></svg>