<svg xmlns="http://www.w3.org/2000/svg" width="299.7" height="59.904" viewBox="0 0 299.7 59.904">
  <path id="identidade"
    d="M21.6,0h.72A15.681,15.681,0,0,0,30.6-2.88Q37.08-7.2,38.52-17.1a24.19,24.19,0,0,0,.36-4.32q0-11.34-6.84-17.1A15.375,15.375,0,0,0,21.6-42.66a31.784,31.784,0,0,0-7.56,1.8v-13.5a4.312,4.312,0,0,0-1.44-3.42A4.433,4.433,0,0,0,9.18-59.4a4.076,4.076,0,0,0-4.14,2.88,4.122,4.122,0,0,0-.54,2.16v34.74Q4.5-6.84,13.32-1.8A14.872,14.872,0,0,0,21.6,0ZM14.04-19.62v-5.94q0-4.32,2.52-5.94l1.08-.54a8.206,8.206,0,0,1,3.96-1.08,9.783,9.783,0,0,1,3.6,1.26q4.14,2.7,4.14,10.44T25.2-10.8a7.6,7.6,0,0,1-3.6,1.44h-.54q-5.94,0-6.84-6.84A31,31,0,0,1,14.04-19.62ZM56.52-54a4.522,4.522,0,0,0-2.88-4.5,4.007,4.007,0,0,0-1.8-.36,4.631,4.631,0,0,0-4.32,2.7A5.813,5.813,0,0,0,47.16-54V-4.68a4.275,4.275,0,0,0,2.7,4.14,5.285,5.285,0,0,0,1.98.36,4.406,4.406,0,0,0,4.32-2.7,4.815,4.815,0,0,0,.36-1.8ZM69.66-42.84a5.292,5.292,0,0,1,3.6,1.44,4.884,4.884,0,0,1,1.44,3.6v20.52a8.463,8.463,0,0,0,.9,4.14,6.277,6.277,0,0,0,3.06,3.06,11.337,11.337,0,0,0,3.6.54q4.5,0,6.12-2.7l.54-.9a9.894,9.894,0,0,0,.9-4.14V-37.8a4.672,4.672,0,0,1,2.52-4.32,4.158,4.158,0,0,1,4.68,0,4.672,4.672,0,0,1,2.52,4.32v20.52Q98.46-4.86,88.38-1.08A17.285,17.285,0,0,1,82.26,0q-8.64,0-13.5-6.48a16.2,16.2,0,0,1-1.62-2.34,18.094,18.094,0,0,1-2.16-8.46V-37.8a4.544,4.544,0,0,1,2.7-4.5A3.776,3.776,0,0,1,69.66-42.84Zm42.84,0a5.292,5.292,0,0,1,3.6,1.44,4.884,4.884,0,0,1,1.44,3.6v20.52a8.463,8.463,0,0,0,.9,4.14,6.277,6.277,0,0,0,3.06,3.06,11.337,11.337,0,0,0,3.6.54q4.5,0,6.12-2.7l.54-.9a9.894,9.894,0,0,0,.9-4.14V-37.8a4.672,4.672,0,0,1,2.52-4.32,4.158,4.158,0,0,1,4.68,0,4.672,4.672,0,0,1,2.52,4.32v20.52Q141.3-4.86,131.22-1.08A17.285,17.285,0,0,1,125.1,0q-8.64,0-13.5-6.48a16.2,16.2,0,0,1-1.62-2.34,18.094,18.094,0,0,1-2.16-8.46V-37.8a4.544,4.544,0,0,1,2.7-4.5A3.776,3.776,0,0,1,112.5-42.84ZM171.9-59.4l2.52.36a4.943,4.943,0,0,1,3.6,3.42,4.635,4.635,0,0,1-1.44,4.86,4.257,4.257,0,0,1-4.68,1.08l-3.06-.36a3.1,3.1,0,0,0-2.52,1.08q-.9.9-.9,3.6v4.5h7.74a4.176,4.176,0,0,1,4.14,2.34,4.158,4.158,0,0,1,0,4.68,4.532,4.532,0,0,1-4.14,2.52h-7.74V-4.68a4.846,4.846,0,0,1-2.16,4.32,4.77,4.77,0,0,1-5.04,0,4.741,4.741,0,0,1-2.34-4.32V-31.32H154.8a4.672,4.672,0,0,1-4.32-2.52,4.655,4.655,0,0,1,0-4.68,4.327,4.327,0,0,1,4.32-2.34h1.08v-4.5q0-6.12,3.06-9.72a11.359,11.359,0,0,1,7.02-4.14A19.621,19.621,0,0,1,171.9-59.4ZM204.12-9.9H202.5q-5.94-.9-7.2-7.02h19.62a4.2,4.2,0,0,0,4.32-2.88,4.815,4.815,0,0,0,.36-1.8v-1.8q0-12.6-8.64-18a14.938,14.938,0,0,0-7.38-1.8,16.7,16.7,0,0,0-9.9,3.06q-7.92,5.22-8.46,17.46a5.479,5.479,0,0,0,0,1.98q.54,11.7,8.46,17.46A15.113,15.113,0,0,0,202.5-.18a45.261,45.261,0,0,0,9-.36,14.752,14.752,0,0,0,6.3-3.06,3.947,3.947,0,0,0,1.8-4.32,4.66,4.66,0,0,0-2.7-3.96,4.781,4.781,0,0,0-4.86.9Q210.42-9.9,204.12-9.9Zm-.72-23.58a6.076,6.076,0,0,1,3.06.72q2.88,1.44,3.6,5.94v.36H195.3a8.741,8.741,0,0,1,3.6-5.94,7.647,7.647,0,0,1,3.6-1.08h.9ZM246.42-9.9H244.8q-5.94-.9-7.2-7.02h19.62a4.2,4.2,0,0,0,4.32-2.88,4.816,4.816,0,0,0,.36-1.8v-1.8q0-12.6-8.64-18a14.938,14.938,0,0,0-7.38-1.8,16.7,16.7,0,0,0-9.9,3.06q-7.92,5.22-8.46,17.46a5.479,5.479,0,0,0,0,1.98q.54,11.7,8.46,17.46A15.113,15.113,0,0,0,244.8-.18a45.261,45.261,0,0,0,9-.36,14.752,14.752,0,0,0,6.3-3.06,3.947,3.947,0,0,0,1.8-4.32,4.66,4.66,0,0,0-2.7-3.96,4.781,4.781,0,0,0-4.86.9Q252.72-9.9,246.42-9.9Zm-.72-23.58a6.076,6.076,0,0,1,3.06.72q2.88,1.44,3.6,5.94v.36H237.6a8.741,8.741,0,0,1,3.6-5.94,7.647,7.647,0,0,1,3.6-1.08h.9Zm58.5,13.86V-54.36a4.312,4.312,0,0,0-1.44-3.42,4.1,4.1,0,0,0-3.42-1.62,4.394,4.394,0,0,0-4.32,2.88,5.813,5.813,0,0,0-.36,2.16v13.68a18.628,18.628,0,0,0-7.74-1.8,17.123,17.123,0,0,0-8.64,2.7q-8.46,5.58-8.46,18.54,0,11.34,7.02,17.46l1.44.9A15.459,15.459,0,0,0,286.38,0h.54a16.081,16.081,0,0,0,8.64-1.8q6.12-3.24,7.92-11.52A25.949,25.949,0,0,0,304.2-19.62Zm-9.54-5.76v5.76q.18,7.74-3.6,9.36a5.1,5.1,0,0,1-3.42.9h-.72a16.111,16.111,0,0,1-3.6-1.44q-3.78-3.6-3.96-10.44,0-7.92,3.96-10.62a7.611,7.611,0,0,1,3.6-1.26,15.845,15.845,0,0,1,4.14,1.08,6.984,6.984,0,0,1,3.24,3.24A14.241,14.241,0,0,1,294.66-25.38Z"
    transform="translate(-4.5 59.544)" fill="#fff" />
</svg>
